<?xml version="1.0" encoding="UTF-8" standalone="no"?>
<!DOCTYPE svg PUBLIC "-//W3C//DTD SVG 1.1//EN" "http://www.w3.org/Graphics/SVG/1.1/DTD/svg11.dtd">
<svg width="100%" height="100%" viewBox="0 0 263 198" version="1.1" xmlns="http://www.w3.org/2000/svg" xmlns:xlink="http://www.w3.org/1999/xlink" xml:space="preserve" xmlns:serif="http://www.serif.com/" style="fill-rule:evenodd;clip-rule:evenodd;stroke-linejoin:round;stroke-miterlimit:2;">
    <g transform="matrix(4.9871,0,0,4.9871,-533.381,-2487.04)">
        <path d="M140.302,523.528C139.955,523.528 139.671,523.812 139.671,524.16L139.685,535.063L136.583,535.063L136.569,516.178C136.569,515.831 136.285,515.545 135.938,515.545L130.483,515.545C130.136,515.545 129.854,515.83 129.854,516.178L129.867,535.063L126.765,535.063L126.751,528.344C126.75,527.998 126.468,527.713 126.121,527.713L120.667,527.713C120.319,527.713 120.036,527.997 120.036,528.344L120.049,535.063L112.713,535.063C112.282,535.063 111.926,535.417 111.926,535.852L111.926,537.428C111.926,537.862 112.282,538.218 112.713,538.218L153.766,538.218C154.196,538.218 154.553,537.862 154.553,537.428L154.553,535.852C154.553,535.417 154.196,535.063 153.766,535.063L146.401,535.063L146.387,524.16C146.387,523.812 146.103,523.528 145.756,523.528L140.302,523.528ZM133.895,504.26L133.885,504.254L133.875,504.249L133.866,504.245L133.856,504.24L133.847,504.236L133.838,504.231L133.829,504.228C133.647,504.142 133.445,504.096 133.236,504.096C133.036,504.096 132.846,504.138 132.673,504.214L116.847,512.454L116.847,521.798C116.847,522.145 116.563,522.429 116.216,522.429L112.559,522.429C112.211,522.429 111.928,522.145 111.928,521.798L111.928,515.014L109.551,516.251C109.254,516.405 108.884,516.288 108.729,515.99L107.021,512.709C106.866,512.412 106.982,512.041 107.279,511.886L132.134,498.949C132.467,498.786 132.844,498.696 133.239,498.696C133.635,498.696 134.011,498.788 134.345,498.949L141.439,502.642L141.439,500.719C141.439,500.385 141.713,500.109 142.049,500.109L145.748,500.109C146.083,500.109 146.358,500.388 146.358,500.719L146.358,505.201L159.2,511.886C159.496,512.041 159.613,512.412 159.457,512.709L157.75,515.99C157.595,516.288 157.225,516.405 156.927,516.251L154.553,515.015L154.553,521.798C154.553,522.145 154.269,522.429 153.922,522.429L150.265,522.429C149.918,522.429 149.634,522.145 149.634,521.798L149.634,512.454L133.895,504.26Z" style="fill:rgb(62,136,233);"/>
    </g>
</svg>
