<?xml version="1.0" encoding="UTF-8" standalone="no"?>
<!DOCTYPE svg PUBLIC "-//W3C//DTD SVG 1.1//EN" "http://www.w3.org/Graphics/SVG/1.1/DTD/svg11.dtd">
<svg width="100%" height="100%" viewBox="0 0 270 74" version="1.1" xmlns="http://www.w3.org/2000/svg" xmlns:xlink="http://www.w3.org/1999/xlink" xml:space="preserve" xmlns:serif="http://www.serif.com/" style="fill-rule:evenodd;clip-rule:evenodd;stroke-linejoin:round;stroke-miterlimit:2;">
    <g transform="matrix(4.16667,0,0,4.16667,-27.225,-1.175)">
        <g transform="matrix(1,0,0,1,6.8705,2.22045e-16)">
            <path d="M1.241,1.856L1.241,5.525L5.119,5.525L5.119,6.557L1.241,6.557L1.241,11.785L0,11.785L0,0.825L5.305,0.825L5.305,1.856L1.241,1.856Z" style="fill:rgb(113,114,114);fill-rule:nonzero;"/>
            <path d="M17.39,8.011C17.39,7.81 17.379,7.593 17.359,7.361C17.338,7.128 17.302,6.9 17.25,6.675C17.198,6.45 17.129,6.235 17.041,6.028C16.953,5.822 16.839,5.638 16.699,5.478C16.56,5.318 16.393,5.191 16.199,5.098C16.005,5.006 15.779,4.959 15.52,4.959C15.257,4.959 15.029,5.007 14.838,5.102C14.646,5.198 14.482,5.324 14.345,5.482C14.208,5.64 14.096,5.823 14.008,6.032C13.92,6.241 13.851,6.458 13.802,6.683C13.753,6.907 13.72,7.135 13.702,7.364C13.683,7.594 13.674,7.81 13.674,8.011C13.674,8.213 13.683,8.427 13.702,8.654C13.72,8.882 13.753,9.108 13.802,9.332C13.851,9.557 13.92,9.774 14.008,9.983C14.096,10.192 14.208,10.375 14.345,10.533C14.482,10.69 14.646,10.817 14.838,10.912C15.029,11.008 15.257,11.056 15.52,11.056C15.784,11.056 16.013,11.009 16.207,10.916C16.401,10.823 16.568,10.697 16.707,10.537C16.847,10.377 16.96,10.193 17.048,9.987C17.136,9.78 17.206,9.565 17.258,9.34C17.31,9.115 17.344,8.888 17.363,8.658C17.381,8.428 17.39,8.213 17.39,8.011ZM18.631,8.023C18.631,8.535 18.579,9.029 18.476,9.504C18.372,9.98 18.199,10.4 17.956,10.765C17.713,11.129 17.394,11.42 16.998,11.637C16.602,11.855 16.11,11.963 15.52,11.963C14.936,11.963 14.446,11.853 14.051,11.634C13.655,11.414 13.337,11.122 13.097,10.757C12.856,10.393 12.685,9.972 12.585,9.497C12.484,9.021 12.433,8.53 12.433,8.023C12.433,7.511 12.484,7.017 12.585,6.541C12.685,6.066 12.856,5.643 13.097,5.273C13.337,4.904 13.655,4.607 14.051,4.385C14.446,4.163 14.936,4.052 15.52,4.052C16.11,4.052 16.602,4.161 16.998,4.381C17.394,4.601 17.713,4.896 17.956,5.266C18.199,5.635 18.372,6.059 18.476,6.537C18.579,7.016 18.631,7.511 18.631,8.023Z" style="fill:rgb(113,114,114);fill-rule:nonzero;"/>
            <path d="M29.319,5.514C28.993,5.718 28.731,5.984 28.532,6.313C28.333,6.641 28.192,7.011 28.109,7.422C28.026,7.833 27.985,8.245 27.985,8.659L27.985,11.785L26.907,11.785L26.907,4.222L27.985,4.222L27.985,5.688L28.016,5.688C28.492,4.597 29.335,4.052 30.545,4.052L30.545,5.207C30.053,5.207 29.645,5.309 29.319,5.514Z" style="fill:rgb(113,114,114);fill-rule:nonzero;"/>
            <path d="M39.798,5.13L39.798,9.784C39.798,10.187 39.897,10.5 40.094,10.722C40.292,10.945 40.606,11.056 41.036,11.056C41.187,11.056 41.314,11.044 41.418,11.021C41.522,10.997 41.641,10.96 41.776,10.908L41.776,11.878C41.616,11.904 41.457,11.924 41.299,11.94C41.141,11.955 40.982,11.963 40.822,11.963C40.465,11.963 40.156,11.929 39.895,11.862C39.634,11.795 39.416,11.685 39.24,11.533C39.064,11.38 38.934,11.18 38.848,10.931C38.763,10.683 38.72,10.376 38.72,10.009L38.72,5.13L37.487,5.13L37.487,4.222L38.72,4.222L38.72,2.461L39.798,1.779L39.798,4.222L41.838,4.222L41.838,5.13L39.798,5.13Z" style="fill:rgb(113,114,114);fill-rule:nonzero;"/>
            <rect x="49.874" y="4.222" width="1.078" height="7.563" style="fill:rgb(113,114,114);"/>
            <path d="M64.1,9.678C64.1,10.101 64.023,10.459 63.871,10.751C63.718,11.042 63.514,11.277 63.258,11.456C63.002,11.634 62.703,11.763 62.362,11.843C62.021,11.923 61.661,11.963 61.284,11.963C60.932,11.963 60.585,11.936 60.241,11.882C59.897,11.827 59.557,11.749 59.221,11.645L59.221,10.66C59.542,10.769 59.865,10.862 60.188,10.939C60.512,11.017 60.842,11.056 61.179,11.056C61.381,11.056 61.591,11.039 61.809,11.005C62.027,10.972 62.225,10.91 62.403,10.819C62.582,10.729 62.73,10.603 62.847,10.443C62.963,10.283 63.021,10.078 63.021,9.83C63.021,9.644 62.976,9.483 62.885,9.345C62.795,9.208 62.682,9.087 62.547,8.981C62.413,8.875 62.265,8.782 62.104,8.702C61.944,8.621 61.793,8.543 61.653,8.465L60.969,8.1C60.747,7.982 60.532,7.861 60.324,7.74C60.117,7.618 59.935,7.481 59.776,7.329C59.618,7.176 59.491,6.998 59.396,6.793C59.3,6.589 59.252,6.342 59.252,6.053C59.252,5.68 59.325,5.366 59.473,5.11C59.62,4.854 59.816,4.648 60.059,4.49C60.302,4.332 60.579,4.22 60.89,4.152C61.2,4.085 61.518,4.052 61.845,4.052C62.155,4.052 62.455,4.075 62.745,4.121C63.035,4.168 63.327,4.227 63.622,4.3L63.622,5.3C63.348,5.199 63.057,5.117 62.749,5.054C62.441,4.991 62.144,4.959 61.86,4.959C61.709,4.959 61.546,4.976 61.37,5.01C61.194,5.043 61.029,5.098 60.874,5.176C60.718,5.253 60.589,5.356 60.485,5.482C60.382,5.608 60.33,5.762 60.33,5.943C60.33,6.103 60.38,6.243 60.481,6.362C60.582,6.48 60.703,6.586 60.846,6.679C60.988,6.772 61.138,6.855 61.296,6.927C61.453,6.999 61.587,7.069 61.695,7.136L62.331,7.516C62.564,7.655 62.786,7.788 62.998,7.915C63.21,8.041 63.398,8.183 63.561,8.341C63.723,8.499 63.854,8.683 63.952,8.895C64.05,9.107 64.1,9.368 64.1,9.678Z" style="fill:rgb(113,114,114);fill-rule:nonzero;"/>
            <path d="M49.874,3.539L49.874,0.282L51.503,1.911L49.874,3.539Z" style="fill:rgb(231,161,51);fill-rule:nonzero;"/>
        </g>
        <g>
            <path d="M8.375,17.86C8.263,17.918 8.016,17.996 7.701,17.996C6.994,17.996 6.534,17.516 6.534,16.799C6.534,16.077 7.028,15.554 7.794,15.554C8.045,15.554 8.268,15.617 8.384,15.675L8.288,16.005C8.186,15.947 8.026,15.893 7.794,15.893C7.256,15.893 6.965,16.291 6.965,16.78C6.965,17.323 7.314,17.657 7.779,17.657C8.021,17.657 8.181,17.594 8.302,17.54L8.375,17.86Z" style="fill:rgb(113,114,114);fill-rule:nonzero;"/>
            <path d="M10.434,16.78C10.434,17.293 10.729,17.681 11.146,17.681C11.552,17.681 11.858,17.298 11.858,16.77C11.858,16.373 11.659,15.869 11.155,15.869C10.652,15.869 10.434,16.334 10.434,16.78ZM12.294,16.756C12.294,17.623 11.693,18 11.126,18C10.492,18 10.002,17.535 10.002,16.795C10.002,16.01 10.516,15.549 11.165,15.549C11.838,15.549 12.294,16.039 12.294,16.756Z" style="fill:rgb(113,114,114);fill-rule:nonzero;"/>
            <path d="M14.158,16.237C14.158,15.995 14.154,15.796 14.139,15.603L14.512,15.603L14.532,15.981L14.546,15.981C14.677,15.758 14.895,15.549 15.282,15.549C15.602,15.549 15.844,15.743 15.946,16.019L15.956,16.019C16.028,15.888 16.12,15.787 16.217,15.714C16.358,15.608 16.513,15.549 16.736,15.549C17.046,15.549 17.506,15.753 17.506,16.567L17.506,17.947L17.089,17.947L17.089,16.62C17.089,16.169 16.925,15.898 16.581,15.898C16.338,15.898 16.149,16.077 16.077,16.286C16.057,16.344 16.043,16.422 16.043,16.499L16.043,17.947L15.626,17.947L15.626,16.542C15.626,16.169 15.462,15.898 15.137,15.898C14.871,15.898 14.677,16.112 14.609,16.324C14.585,16.387 14.575,16.46 14.575,16.533L14.575,17.947L14.158,17.947L14.158,16.237Z" style="fill:rgb(113,114,114);fill-rule:nonzero;"/>
            <path d="M19.526,16.237C19.526,15.995 19.521,15.796 19.506,15.603L19.879,15.603L19.899,15.981L19.913,15.981C20.044,15.758 20.262,15.549 20.649,15.549C20.969,15.549 21.211,15.743 21.313,16.019L21.323,16.019C21.395,15.888 21.487,15.787 21.584,15.714C21.725,15.608 21.88,15.549 22.103,15.549C22.413,15.549 22.873,15.753 22.873,16.567L22.873,17.947L22.456,17.947L22.456,16.62C22.456,16.169 22.292,15.898 21.948,15.898C21.705,15.898 21.517,16.077 21.444,16.286C21.424,16.344 21.41,16.422 21.41,16.499L21.41,17.947L20.993,17.947L20.993,16.542C20.993,16.169 20.829,15.898 20.504,15.898C20.238,15.898 20.044,16.112 19.976,16.324C19.952,16.387 19.942,16.46 19.942,16.533L19.942,17.947L19.526,17.947L19.526,16.237Z" style="fill:rgb(113,114,114);fill-rule:nonzero;"/>
            <path d="M26.38,16.547C26.385,16.276 26.268,15.855 25.789,15.855C25.358,15.855 25.169,16.252 25.135,16.547L26.38,16.547ZM25.13,16.852C25.14,17.429 25.508,17.666 25.934,17.666C26.239,17.666 26.423,17.613 26.583,17.545L26.656,17.85C26.506,17.918 26.249,17.996 25.876,17.996C25.154,17.996 24.723,17.521 24.723,16.814C24.723,16.106 25.14,15.549 25.823,15.549C26.588,15.549 26.792,16.223 26.792,16.654C26.792,16.741 26.782,16.809 26.777,16.852L25.13,16.852Z" style="fill:rgb(113,114,114);fill-rule:nonzero;"/>
            <path d="M28.647,16.334C28.647,16.058 28.642,15.821 28.627,15.603L29,15.603L29.015,16.063L29.034,16.063C29.141,15.748 29.398,15.549 29.683,15.549C29.732,15.549 29.766,15.554 29.805,15.564L29.805,15.966C29.761,15.957 29.717,15.951 29.659,15.951C29.359,15.951 29.146,16.179 29.088,16.499C29.078,16.557 29.068,16.625 29.068,16.697L29.068,17.947L28.647,17.947L28.647,16.334Z" style="fill:rgb(113,114,114);fill-rule:nonzero;"/>
            <path d="M33.181,17.86C33.069,17.918 32.822,17.996 32.507,17.996C31.8,17.996 31.34,17.516 31.34,16.799C31.34,16.077 31.834,15.554 32.599,15.554C32.851,15.554 33.074,15.617 33.19,15.675L33.094,16.005C32.992,15.947 32.832,15.893 32.599,15.893C32.062,15.893 31.771,16.291 31.771,16.78C31.771,17.323 32.12,17.657 32.585,17.657C32.827,17.657 32.987,17.594 33.108,17.54L33.181,17.86Z" style="fill:rgb(113,114,114);fill-rule:nonzero;"/>
            <path d="M35.007,17.947L35.007,15.603L35.433,15.603L35.433,17.947L35.007,17.947ZM35.482,14.944C35.486,15.089 35.38,15.205 35.21,15.205C35.06,15.205 34.954,15.089 34.954,14.944C34.954,14.794 35.065,14.677 35.22,14.677C35.38,14.677 35.482,14.794 35.482,14.944Z" style="fill:rgb(113,114,114);fill-rule:nonzero;"/>
            <path d="M38.703,16.751C38.238,16.741 37.71,16.823 37.71,17.279C37.71,17.555 37.894,17.686 38.112,17.686C38.417,17.686 38.611,17.492 38.679,17.293C38.693,17.25 38.703,17.201 38.703,17.158L38.703,16.751ZM38.766,17.947L38.732,17.652L38.717,17.652C38.587,17.836 38.335,18 38,18C37.526,18 37.284,17.666 37.284,17.327C37.284,16.76 37.787,16.45 38.693,16.455L38.693,16.407C38.693,16.213 38.64,15.864 38.16,15.864C37.942,15.864 37.715,15.932 37.55,16.039L37.453,15.758C37.647,15.632 37.928,15.549 38.223,15.549C38.94,15.549 39.115,16.039 39.115,16.509L39.115,17.385C39.115,17.589 39.124,17.788 39.153,17.947L38.766,17.947Z" style="fill:rgb(113,114,114);fill-rule:nonzero;"/>
            <rect x="41.13" y="14.508" width="0.426" height="3.439" style="fill:rgb(113,114,114);"/>
            <path d="M47.189,16.751C46.724,16.741 46.196,16.823 46.196,17.279C46.196,17.555 46.38,17.686 46.598,17.686C46.904,17.686 47.097,17.492 47.165,17.293C47.18,17.25 47.189,17.201 47.189,17.158L47.189,16.751ZM47.252,17.947L47.218,17.652L47.204,17.652C47.073,17.836 46.821,18 46.487,18C46.012,18 45.77,17.666 45.77,17.327C45.77,16.76 46.274,16.45 47.18,16.455L47.18,16.407C47.18,16.213 47.126,15.864 46.647,15.864C46.429,15.864 46.201,15.932 46.036,16.039L45.94,15.758C46.133,15.632 46.414,15.549 46.71,15.549C47.427,15.549 47.601,16.039 47.601,16.509L47.601,17.385C47.601,17.589 47.611,17.788 47.64,17.947L47.252,17.947Z" style="fill:rgb(113,114,114);fill-rule:nonzero;"/>
            <path d="M51.215,16.557C51.215,16.504 51.21,16.431 51.195,16.378C51.132,16.106 50.9,15.884 50.58,15.884C50.139,15.884 49.878,16.271 49.878,16.789C49.878,17.264 50.11,17.657 50.57,17.657C50.856,17.657 51.118,17.468 51.195,17.148C51.21,17.09 51.215,17.032 51.215,16.964L51.215,16.557ZM51.641,14.508L51.641,17.342C51.641,17.55 51.646,17.788 51.66,17.947L51.278,17.947L51.258,17.54L51.249,17.54C51.118,17.802 50.832,18 50.449,18C49.883,18 49.447,17.521 49.447,16.809C49.442,16.029 49.926,15.549 50.498,15.549C50.856,15.549 51.099,15.719 51.205,15.908L51.215,15.908L51.215,14.508L51.641,14.508Z" style="fill:rgb(113,114,114);fill-rule:nonzero;"/>
            <path d="M53.84,15.603L54.3,16.92C54.378,17.133 54.441,17.327 54.489,17.521L54.504,17.521C54.557,17.327 54.625,17.133 54.702,16.92L55.158,15.603L55.603,15.603L54.683,17.947L54.276,17.947L53.385,15.603L53.84,15.603Z" style="fill:rgb(113,114,114);fill-rule:nonzero;"/>
            <path d="M57.333,17.947L57.333,15.603L57.759,15.603L57.759,17.947L57.333,17.947ZM57.807,14.944C57.812,15.089 57.706,15.205 57.536,15.205C57.386,15.205 57.279,15.089 57.279,14.944C57.279,14.794 57.391,14.677 57.546,14.677C57.706,14.677 57.807,14.794 57.807,14.944Z" style="fill:rgb(113,114,114);fill-rule:nonzero;"/>
            <path d="M59.735,17.511C59.861,17.594 60.084,17.681 60.297,17.681C60.607,17.681 60.752,17.526 60.752,17.332C60.752,17.129 60.631,17.017 60.316,16.901C59.895,16.751 59.696,16.518 59.696,16.237C59.696,15.859 60.001,15.549 60.505,15.549C60.743,15.549 60.951,15.617 61.082,15.695L60.975,16.005C60.883,15.947 60.714,15.869 60.496,15.869C60.244,15.869 60.103,16.014 60.103,16.189C60.103,16.383 60.244,16.47 60.549,16.586C60.956,16.741 61.164,16.944 61.164,17.293C61.164,17.705 60.844,17.996 60.287,17.996C60.031,17.996 59.793,17.933 59.628,17.836L59.735,17.511Z" style="fill:rgb(113,114,114);fill-rule:nonzero;"/>
            <path d="M63.3,16.78C63.3,17.293 63.596,17.681 64.012,17.681C64.419,17.681 64.724,17.298 64.724,16.77C64.724,16.373 64.526,15.869 64.022,15.869C63.518,15.869 63.3,16.334 63.3,16.78ZM65.16,16.756C65.16,17.623 64.56,18 63.993,18C63.358,18 62.869,17.535 62.869,16.795C62.869,16.01 63.383,15.549 64.032,15.549C64.705,15.549 65.16,16.039 65.16,16.756Z" style="fill:rgb(113,114,114);fill-rule:nonzero;"/>
            <path d="M67.025,16.334C67.025,16.058 67.02,15.821 67.006,15.603L67.379,15.603L67.393,16.063L67.413,16.063C67.519,15.748 67.776,15.549 68.062,15.549C68.11,15.549 68.144,15.554 68.183,15.564L68.183,15.966C68.139,15.957 68.096,15.951 68.038,15.951C67.737,15.951 67.524,16.179 67.466,16.499C67.456,16.557 67.447,16.625 67.447,16.697L67.447,17.947L67.025,17.947L67.025,16.334Z" style="fill:rgb(113,114,114);fill-rule:nonzero;"/>
            <path d="M69.878,17.511C70.004,17.594 70.227,17.681 70.44,17.681C70.75,17.681 70.896,17.526 70.896,17.332C70.896,17.129 70.775,17.017 70.46,16.901C70.038,16.751 69.84,16.518 69.84,16.237C69.84,15.859 70.145,15.549 70.649,15.549C70.886,15.549 71.094,15.617 71.225,15.695L71.118,16.005C71.026,15.947 70.857,15.869 70.639,15.869C70.387,15.869 70.246,16.014 70.246,16.189C70.246,16.383 70.387,16.47 70.692,16.586C71.099,16.741 71.307,16.944 71.307,17.293C71.307,17.705 70.988,17.996 70.431,17.996C70.174,17.996 69.936,17.933 69.772,17.836L69.878,17.511Z" style="fill:rgb(113,114,114);fill-rule:nonzero;"/>
        </g>
    </g>
</svg>
