<?xml version="1.0" encoding="UTF-8" standalone="no"?>
<!DOCTYPE svg PUBLIC "-//W3C//DTD SVG 1.1//EN" "http://www.w3.org/Graphics/SVG/1.1/DTD/svg11.dtd">
<svg width="100%" height="100%" viewBox="0 0 193 198" version="1.1" xmlns="http://www.w3.org/2000/svg" xmlns:xlink="http://www.w3.org/1999/xlink" xml:space="preserve" xmlns:serif="http://www.serif.com/" style="fill-rule:evenodd;clip-rule:evenodd;stroke-linejoin:round;stroke-miterlimit:2;">
    <g transform="matrix(4.16667,0,0,4.16667,-887.225,-413.613)">
        <path d="M246.739,112.135L246.739,118.247L247.815,118.247C248.756,118.247 249.493,117.964 250.03,117.4C250.565,116.835 250.833,116.067 250.833,115.093C250.833,114.175 250.567,113.451 250.037,112.926C249.505,112.398 248.761,112.135 247.802,112.135L246.739,112.135ZM244.565,120.01L247.983,120.01C249.539,120.01 250.784,119.563 251.717,118.665C252.651,117.767 253.12,116.568 253.12,115.067C253.12,111.933 251.407,110.368 247.983,110.368L244.565,110.368L244.565,120.01ZM243.269,120.01L243.269,118.247L239.7,118.247L239.7,110.368L237.525,110.368L237.525,120.01L243.269,120.01ZM231.252,112.074C230.491,112.074 229.885,112.359 229.437,112.933C228.99,113.505 228.765,114.259 228.765,115.201C228.765,116.156 228.99,116.911 229.437,117.469C229.885,118.024 230.472,118.301 231.197,118.301C231.948,118.301 232.54,118.03 232.981,117.491C233.42,116.95 233.64,116.202 233.64,115.242C233.64,114.242 233.426,113.463 233.001,112.908C232.575,112.353 231.992,112.074 231.252,112.074ZM231.158,120.177C232.575,120.177 233.725,119.714 234.604,118.787C235.485,117.859 235.925,116.636 235.925,115.12C235.925,113.647 235.501,112.458 234.652,111.556C233.803,110.656 232.689,110.204 231.312,110.204C229.854,110.204 228.687,110.677 227.803,111.618C226.919,112.559 226.478,113.792 226.478,115.315C226.478,116.759 226.913,117.93 227.782,118.83C228.652,119.727 229.776,120.177 231.158,120.177ZM218.92,119.641C219.27,119.819 219.685,119.954 220.163,120.044C220.639,120.134 221.142,120.177 221.669,120.177C222.187,120.177 222.675,120.129 223.141,120.03C223.605,119.931 224.012,119.768 224.359,119.541C224.711,119.316 224.986,119.021 225.191,118.655C225.396,118.288 225.496,117.838 225.496,117.298C225.496,116.909 225.438,116.567 225.321,116.275C225.206,115.981 225.037,115.72 224.817,115.489C224.599,115.262 224.334,115.057 224.027,114.875C223.72,114.693 223.375,114.522 222.99,114.361C222.707,114.244 222.453,114.132 222.23,114.022C222.006,113.911 221.815,113.798 221.659,113.686C221.5,113.571 221.379,113.45 221.293,113.321C221.208,113.194 221.167,113.05 221.167,112.887C221.167,112.74 221.205,112.606 221.28,112.488C221.358,112.369 221.466,112.267 221.604,112.182C221.743,112.098 221.913,112.031 222.116,111.983C222.318,111.937 222.54,111.914 222.788,111.914C222.967,111.914 223.155,111.928 223.355,111.953C223.554,111.981 223.756,112.022 223.956,112.077C224.159,112.135 224.356,112.206 224.546,112.291C224.737,112.375 224.911,112.474 225.074,112.586L225.074,110.576C224.745,110.45 224.388,110.355 224.002,110.296C223.614,110.236 223.168,110.204 222.666,110.204C222.154,110.204 221.669,110.259 221.213,110.37C220.756,110.48 220.355,110.651 220.006,110.883C219.66,111.117 219.384,111.413 219.182,111.776C218.979,112.137 218.881,112.568 218.881,113.07C218.881,113.711 219.064,114.258 219.435,114.71C219.804,115.165 220.366,115.547 221.12,115.86C221.415,115.981 221.69,116.101 221.945,116.218C222.203,116.333 222.423,116.454 222.609,116.58C222.794,116.704 222.941,116.842 223.05,116.991C223.158,117.139 223.21,117.305 223.21,117.494C223.21,117.634 223.178,117.762 223.109,117.881C223.043,117.999 222.941,118.103 222.804,118.189C222.666,118.279 222.497,118.345 222.292,118.396C222.089,118.444 221.852,118.469 221.576,118.469C221.11,118.469 220.648,118.387 220.192,118.223C219.735,118.062 219.311,117.815 218.92,117.487L218.92,119.641ZM238.663,99.859L238.663,103.362L258.479,103.362C258.802,103.362 259.066,103.626 259.066,103.951L259.066,126.432C259.066,126.757 258.801,127.021 258.479,127.021L238.663,127.021L238.663,143.388L244.281,143.388C244.606,143.388 244.873,143.653 244.873,143.98L244.873,145.99C244.873,146.314 244.606,146.582 244.281,146.582L227.72,146.582C227.395,146.582 227.129,146.314 227.129,145.99L227.129,143.98C227.129,143.653 227.395,143.388 227.72,143.388L233.34,143.388L233.34,127.021L213.522,127.021C213.201,127.021 212.934,126.758 212.934,126.432L212.934,103.951C212.934,103.625 213.2,103.362 213.522,103.362L233.34,103.362L233.34,99.859C233.34,99.534 233.607,99.267 233.932,99.267L238.072,99.267C238.397,99.267 238.663,99.534 238.663,99.859Z" style="fill:rgb(62,136,233);"/>
    </g>
</svg>
